<svg width="292" height="51" viewBox="0 0 292 51" fill="none" xmlns="http://www.w3.org/2000/svg">
<path d="M45.911 19.0339H32.4247C32.329 17.9181 32.074 16.9058 31.6595 15.9971C31.2609 15.0885 30.703 14.3073 29.9856 13.6537C29.2842 12.9842 28.4314 12.4741 27.4271 12.1234C26.4227 11.7567 25.2829 11.5734 24.0076 11.5734C21.7759 11.5734 19.8868 12.1154 18.3405 13.1994C16.8101 14.2834 15.6464 15.8377 14.8493 17.8623C14.0682 19.8868 13.6777 22.3179 13.6777 25.1554C13.6777 28.1524 14.0762 30.6631 14.8733 32.6877C15.6863 34.6963 16.858 36.2107 18.3883 37.231C19.9187 38.2353 21.7599 38.7374 23.912 38.7374C25.1395 38.7374 26.2394 38.586 27.2118 38.2831C28.1843 37.9643 29.0292 37.5099 29.7465 36.9201C30.4639 36.3303 31.0457 35.6209 31.4921 34.7919C31.9544 33.9471 32.2652 32.9986 32.4247 31.9464L45.911 32.0421C45.7516 34.1144 45.1698 36.2267 44.1654 38.3788C43.1611 40.5149 41.7344 42.4916 39.8852 44.3089C38.0519 46.1103 35.7803 47.561 33.0703 48.6609C30.3603 49.7609 27.2118 50.3108 23.625 50.3108C19.1296 50.3108 15.0964 49.3464 11.5256 47.4175C7.97066 45.4886 5.15702 42.651 3.08465 38.9048C1.02822 35.1586 0 30.5755 0 25.1554C0 19.7035 1.05213 15.1124 3.15638 11.3821C5.26064 7.6359 8.09819 4.80631 11.6691 2.89335C15.2399 0.96445 19.2252 0 23.625 0C26.7177 0 29.5632 0.422445 32.1616 1.26733C34.7601 2.11223 37.0397 3.34768 39.0005 4.97369C40.9612 6.58377 42.5394 8.56846 43.735 10.9278C44.9306 13.2871 45.656 15.9892 45.911 19.0339Z" fill="black"/>
<path d="M97.0274 25.1554C97.0274 30.6074 95.9673 35.2064 93.8472 38.9526C91.727 42.6829 88.8655 45.5125 85.2627 47.4414C81.66 49.3544 77.6428 50.3108 73.2111 50.3108C68.7475 50.3108 64.7144 49.3464 61.1116 47.4175C57.5248 45.4726 54.6713 42.6351 52.5511 38.9048C50.4469 35.1586 49.3948 30.5755 49.3948 25.1554C49.3948 19.7035 50.4469 15.1124 52.5511 11.3821C54.6713 7.6359 57.5248 4.80631 61.1116 2.89335C64.7144 0.96445 68.7475 0 73.2111 0C77.6428 0 81.66 0.96445 85.2627 2.89335C88.8655 4.80631 91.727 7.6359 93.8472 11.3821C95.9673 15.1124 97.0274 19.7035 97.0274 25.1554ZM83.3498 25.1554C83.3498 22.2222 82.9592 19.7513 82.1781 17.7427C81.4129 15.7182 80.2731 14.1878 78.7587 13.1516C77.2602 12.0995 75.411 11.5734 73.2111 11.5734C71.0112 11.5734 69.154 12.0995 67.6396 13.1516C66.1411 14.1878 65.0013 15.7182 64.2202 17.7427C63.455 19.7513 63.0724 22.2222 63.0724 25.1554C63.0724 28.0886 63.455 30.5675 64.2202 32.592C65.0013 34.6007 66.1411 36.131 67.6396 37.1832C69.154 38.2193 71.0112 38.7374 73.2111 38.7374C75.411 38.7374 77.2602 38.2193 78.7587 37.1832C80.2731 36.131 81.4129 34.6007 82.1781 32.592C82.9592 30.5675 83.3498 28.0886 83.3498 25.1554Z" fill="black"/>
<path d="M100.822 49.6413V0.669536H121.96C125.595 0.669536 128.775 1.3311 131.501 2.65423C134.227 3.97736 136.347 5.88235 137.862 8.3692C139.376 10.856 140.133 13.8371 140.133 17.3123C140.133 20.8194 139.352 23.7765 137.79 26.1836C136.244 28.5908 134.068 30.4081 131.262 31.6356C128.472 32.863 125.212 33.4768 121.482 33.4768H108.856V23.1468H118.804C120.366 23.1468 121.697 22.9555 122.797 22.5729C123.913 22.1744 124.766 21.5447 125.356 20.6839C125.962 19.823 126.264 18.6992 126.264 17.3123C126.264 15.9094 125.962 14.7696 125.356 13.8929C124.766 13.0002 123.913 12.3466 122.797 11.9321C121.697 11.5017 120.366 11.2865 118.804 11.2865H114.117V49.6413H100.822ZM129.516 27.164L141.759 49.6413H127.317L115.361 27.164H129.516Z" fill="black"/>
<path d="M169.843 15.9732C169.715 14.3791 169.117 13.1357 168.049 12.2429C166.997 11.3502 165.395 10.9039 163.243 10.9039C161.872 10.9039 160.748 11.0713 159.871 11.406C159.01 11.7248 158.373 12.1632 157.958 12.7212C157.544 13.2791 157.329 13.9168 157.313 14.6341C157.281 15.224 157.384 15.758 157.624 16.2362C157.879 16.6985 158.277 17.121 158.819 17.5036C159.361 17.8702 160.055 18.205 160.899 18.5079C161.744 18.8108 162.749 19.0818 163.912 19.3209L167.93 20.1817C170.64 20.7556 172.959 21.5128 174.888 22.4534C176.817 23.3939 178.395 24.5018 179.623 25.7771C180.85 27.0365 181.751 28.4553 182.325 30.0335C182.914 31.6117 183.217 33.3333 183.233 35.1985C183.217 38.4186 182.412 41.1446 180.818 43.3764C179.224 45.6081 176.944 47.3059 173.979 48.4696C171.03 49.6333 167.483 50.2152 163.338 50.2152C159.082 50.2152 155.368 49.5855 152.196 48.3261C149.039 47.0668 146.584 45.1299 144.831 42.5155C143.093 39.8852 142.216 36.5216 142.2 32.4247H154.826C154.906 33.9231 155.28 35.1825 155.95 36.2028C156.619 37.223 157.56 37.9962 158.771 38.5222C159.999 39.0483 161.457 39.3113 163.147 39.3113C164.566 39.3113 165.754 39.136 166.71 38.7853C167.667 38.4345 168.392 37.9483 168.886 37.3266C169.38 36.7049 169.635 35.9955 169.651 35.1985C169.635 34.4492 169.388 33.7956 168.91 33.2377C168.448 32.6638 167.683 32.1537 166.614 31.7073C165.546 31.245 164.104 30.8146 162.286 30.4161L157.408 29.3639C153.072 28.4234 149.653 26.8532 147.15 24.6533C144.663 22.4374 143.428 19.4165 143.444 15.5906C143.428 12.4821 144.257 9.76406 145.931 7.43663C147.62 5.09325 149.956 3.26797 152.937 1.96078C155.934 0.653594 159.369 0 163.243 0C167.196 0 170.616 0.661565 173.501 1.9847C176.386 3.30783 178.61 5.17296 180.173 7.5801C181.751 9.9713 182.548 12.769 182.564 15.9732H169.843Z" fill="black"/>
<path d="M193.299 50.4065C191.45 50.4065 189.863 49.7609 188.54 48.4696C187.233 47.1624 186.588 45.5763 186.603 43.7111C186.588 41.8938 187.233 40.3395 188.54 39.0483C189.863 37.757 191.45 37.1114 193.299 37.1114C195.052 37.1114 196.599 37.757 197.938 39.0483C199.293 40.3395 199.978 41.8938 199.994 43.7111C199.978 44.9545 199.651 46.0864 199.014 47.1066C198.392 48.1109 197.579 48.916 196.575 49.5217C195.57 50.1116 194.478 50.4065 193.299 50.4065Z" fill="black"/>
<path d="M231.019 15.9732C230.891 14.3791 230.293 13.1357 229.225 12.2429C228.173 11.3502 226.571 10.9039 224.419 10.9039C223.048 10.9039 221.924 11.0713 221.047 11.406C220.186 11.7248 219.549 12.1632 219.134 12.7212C218.72 13.2791 218.505 13.9168 218.489 14.6341C218.457 15.224 218.56 15.758 218.8 16.2362C219.055 16.6985 219.453 17.121 219.995 17.5036C220.537 17.8702 221.231 18.205 222.075 18.5079C222.92 18.8108 223.925 19.0818 225.088 19.3209L229.106 20.1817C231.816 20.7556 234.135 21.5128 236.064 22.4534C237.993 23.3939 239.571 24.5018 240.799 25.7771C242.026 27.0365 242.927 28.4553 243.501 30.0335C244.09 31.6117 244.393 33.3333 244.409 35.1985C244.393 38.4186 243.588 41.1446 241.994 43.3764C240.4 45.6081 238.12 47.3059 235.155 48.4696C232.206 49.6333 228.659 50.2152 224.514 50.2152C220.258 50.2152 216.544 49.5855 213.371 48.3261C210.215 47.0668 207.76 45.1299 206.007 42.5155C204.269 39.8852 203.392 36.5216 203.376 32.4247H216.002C216.082 33.9231 216.456 35.1825 217.126 36.2028C217.795 37.223 218.736 37.9962 219.947 38.5222C221.175 39.0483 222.633 39.3113 224.323 39.3113C225.742 39.3113 226.93 39.136 227.886 38.7853C228.843 38.4345 229.568 37.9483 230.062 37.3266C230.556 36.7049 230.811 35.9955 230.827 35.1985C230.811 34.4492 230.564 33.7956 230.086 33.2377C229.624 32.6638 228.858 32.1537 227.79 31.7073C226.722 31.245 225.28 30.8146 223.462 30.4161L218.584 29.3639C214.248 28.4234 210.829 26.8532 208.326 24.6533C205.839 22.4374 204.604 19.4165 204.62 15.5906C204.604 12.4821 205.433 9.76406 207.107 7.43663C208.796 5.09325 211.132 3.26797 214.113 1.96078C217.11 0.653594 220.545 0 224.419 0C228.372 0 231.792 0.661565 234.677 1.9847C237.562 3.30783 239.786 5.17296 241.349 7.5801C242.927 9.9713 243.724 12.769 243.74 15.9732H231.019Z" fill="black"/>
<path d="M247.11 49.6413V0.669536H260.405V19.7991H278.004V0.669536H291.299V49.6413H278.004V30.5117H260.405V49.6413H247.11Z" fill="black"/>
</svg>
